<svg id="Layer_1" data-name="Layer 1" xmlns="http://www.w3.org/2000/svg" xmlns:xlink="http://www.w3.org/1999/xlink" viewBox="0 0 80 80"><defs><style>.cls-1{fill:url(#linear-gradient);}.cls-2{fill:url(#linear-gradient-2);}.cls-3{fill:url(#linear-gradient-3);}.cls-4{fill:url(#linear-gradient-4);}.cls-5{fill:url(#linear-gradient-5);}.cls-6{fill:url(#linear-gradient-6);}.cls-7{fill:url(#linear-gradient-7);}.cls-8{fill:url(#linear-gradient-8);}.cls-9{fill:url(#linear-gradient-9);}.cls-10{fill:url(#linear-gradient-10);}.cls-11{fill:url(#linear-gradient-11);}.cls-12{fill:url(#linear-gradient-12);}.cls-13{fill:url(#linear-gradient-13);}.cls-14{fill:url(#linear-gradient-14);}.cls-15{fill:url(#linear-gradient-15);}.cls-16{fill:url(#linear-gradient-16);}.cls-17{fill:url(#linear-gradient-17);}.cls-18{fill:url(#linear-gradient-18);}.cls-19{fill:url(#linear-gradient-19);}.cls-20{fill:url(#linear-gradient-20);}.cls-21{fill:url(#linear-gradient-21);}.cls-22{fill:url(#linear-gradient-22);}.cls-23{fill:url(#linear-gradient-23);}.cls-24{fill:url(#linear-gradient-24);}.cls-25{fill:url(#linear-gradient-25);}</style><linearGradient id="linear-gradient" x1="5" y1="8" x2="11" y2="8" gradientUnits="userSpaceOnUse"><stop offset="0" stop-color="#0b8cd3"/><stop offset="1" stop-color="#022660"/></linearGradient><linearGradient id="linear-gradient-2" x1="21" y1="8" x2="27" y2="8" gradientUnits="userSpaceOnUse"><stop offset="0" stop-color="#066eb2"/><stop offset="1" stop-color="#022660"/></linearGradient><linearGradient id="linear-gradient-3" x1="34.5" x2="45.5" xlink:href="#linear-gradient-2"/><linearGradient id="linear-gradient-4" x1="50.5" x2="61.5" xlink:href="#linear-gradient-2"/><linearGradient id="linear-gradient-5" x1="74" y1="18" x2="90" y2="18" gradientTransform="translate(36.75 -52.71) rotate(45)" xlink:href="#linear-gradient-2"/><linearGradient id="linear-gradient-6" x1="5" y1="24" x2="11" y2="24" xlink:href="#linear-gradient-2"/><linearGradient id="linear-gradient-7" x1="28.5" y1="34" x2="39.5" y2="34" xlink:href="#linear-gradient-2"/><linearGradient id="linear-gradient-8" x1="34.5" y1="24" x2="45.5" y2="24" xlink:href="#linear-gradient-2"/><linearGradient id="linear-gradient-9" x1="58" y1="34" x2="74" y2="34" xlink:href="#linear-gradient-2"/><linearGradient id="linear-gradient-10" x1="66.5" y1="24" x2="77.5" y2="24" xlink:href="#linear-gradient-2"/><linearGradient id="linear-gradient-11" x1="2.5" y1="40" x2="13.5" y2="40" xlink:href="#linear-gradient-2"/><linearGradient id="linear-gradient-12" x1="18.5" y1="40" x2="29.5" y2="40" xlink:href="#linear-gradient-2"/><linearGradient id="linear-gradient-13" x1="32" y1="40" x2="48" y2="40" xlink:href="#linear-gradient-2"/><linearGradient id="linear-gradient-14" x1="50.5" y1="40" x2="61.5" y2="40" xlink:href="#linear-gradient-2"/><linearGradient id="linear-gradient-15" x1="66.5" y1="40" x2="77.5" y2="40" xlink:href="#linear-gradient-2"/><linearGradient id="linear-gradient-16" x1="2.5" y1="56" x2="13.5" y2="56" xlink:href="#linear-gradient-2"/><linearGradient id="linear-gradient-17" x1="16" y1="56" x2="32" y2="56" xlink:href="#linear-gradient-2"/><linearGradient id="linear-gradient-18" x1="34.5" y1="56" x2="45.5" y2="56" xlink:href="#linear-gradient-2"/><linearGradient id="linear-gradient-19" x1="50.5" y1="56" x2="61.5" y2="56" xlink:href="#linear-gradient-2"/><linearGradient id="linear-gradient-20" x1="69" y1="56" x2="75" y2="56" xlink:href="#linear-gradient-2"/><linearGradient id="linear-gradient-21" x1="10" y1="82" x2="26" y2="82" gradientTransform="translate(86.87 33.99) rotate(67.5)" xlink:href="#linear-gradient-2"/><linearGradient id="linear-gradient-22" x1="28.5" y1="82" x2="39.5" y2="82" xlink:href="#linear-gradient-2"/><linearGradient id="linear-gradient-23" x1="34.5" y1="72" x2="45.5" y2="72" xlink:href="#linear-gradient-2"/><linearGradient id="linear-gradient-24" x1="63" y1="82" x2="69" y2="82" xlink:href="#linear-gradient-2"/><linearGradient id="linear-gradient-25" x1="69" y1="72" x2="75" y2="72" xlink:href="#linear-gradient-2"/></defs><circle class="cls-1" cx="8" cy="8" r="3"/><circle class="cls-2" cx="24" cy="8" r="3"/><circle class="cls-3" cx="40" cy="8" r="5.5"/><circle class="cls-4" cx="56" cy="8" r="5.5"/><circle class="cls-5" cx="82" cy="18" r="8" transform="translate(1.29 53.25) rotate(-45)"/><circle class="cls-6" cx="8" cy="24" r="3"/><path class="cls-7" d="M34,39.5A5.5,5.5,0,1,0,28.5,34,5.5,5.5,0,0,0,34,39.5Z" transform="translate(-10 -10)"/><circle class="cls-8" cx="40" cy="24" r="5.5"/><path class="cls-9" d="M66,26a8,8,0,1,0,8,8A8,8,0,0,0,66,26Z" transform="translate(-10 -10)"/><circle class="cls-10" cx="72" cy="24" r="5.5"/><circle class="cls-11" cx="8" cy="40" r="5.5"/><circle class="cls-12" cx="24" cy="40" r="5.5"/><circle class="cls-13" cx="40" cy="40" r="8"/><circle class="cls-14" cx="56" cy="40" r="5.5"/><circle class="cls-15" cx="72" cy="40" r="5.5"/><circle class="cls-16" cx="8" cy="56" r="5.5"/><circle class="cls-17" cx="24" cy="56" r="8"/><circle class="cls-18" cx="40" cy="56" r="5.5"/><circle class="cls-19" cx="56" cy="56" r="5.5"/><circle class="cls-20" cx="72" cy="56" r="3"/><circle class="cls-21" cx="18" cy="82" r="8" transform="translate(-74.65 57.25) rotate(-67.5)"/><path class="cls-22" d="M34,76.5A5.5,5.5,0,1,0,39.5,82,5.5,5.5,0,0,0,34,76.5Z" transform="translate(-10 -10)"/><circle class="cls-23" cx="40" cy="72" r="5.5"/><path class="cls-24" d="M66,79a3,3,0,1,0,3,3A3,3,0,0,0,66,79Z" transform="translate(-10 -10)"/><circle class="cls-25" cx="72" cy="72" r="3"/></svg>