<?xml version="1.0" standalone="no"?>
<!DOCTYPE svg PUBLIC "-//W3C//DTD SVG 20010904//EN"
 "http://www.w3.org/TR/2001/REC-SVG-20010904/DTD/svg10.dtd">
<svg version="1.0" xmlns="http://www.w3.org/2000/svg"
 width="1112.000000pt" height="1225.000000pt" viewBox="0 0 1112.000000 1225.000000"
 preserveAspectRatio="xMidYMid meet">

<g transform="translate(0.000000,1225.000000) scale(0.100000,-0.100000)"
fill="#000000" stroke="none">
<path d="M2798 4603 c-56 -4 -83 -23 -33 -23 14 0 34 -9 45 -20 19 -19 20 -33
20 -229 0 -227 0 -225 -58 -237 -18 -4 -32 -11 -32 -16 0 -5 120 -8 295 -6
246 3 297 5 309 18 17 18 33 150 18 150 -6 0 -18 -21 -28 -46 -10 -25 -27 -52
-38 -59 -33 -21 -114 -28 -241 -20 l-115 7 0 212 c0 194 2 214 18 229 10 10
31 17 45 17 15 0 27 5 27 10 0 6 -13 10 -29 10 -15 0 -55 2 -87 4 -32 2 -85 1
-116 -1z"/>
<path d="M3883 4603 c-21 -8 -15 -23 10 -23 12 0 32 -7 43 -15 19 -13 22 -27
26 -157 7 -201 37 -261 156 -320 60 -30 75 -33 152 -33 74 1 93 5 144 30 32
16 73 47 92 69 50 58 64 117 64 267 0 121 1 129 22 143 12 9 33 16 45 16 13 0
23 5 23 10 0 6 -48 10 -125 10 -69 0 -125 -4 -125 -8 0 -4 20 -13 44 -20 42
-11 43 -13 50 -58 17 -125 1 -256 -39 -316 -51 -77 -149 -115 -230 -88 -51 17
-114 76 -138 129 -14 32 -21 75 -24 150 -6 133 3 173 43 185 58 18 58 20 -1
27 -70 8 -214 10 -232 2z"/>
<path d="M5275 4601 c-48 -5 -64 -9 -50 -14 54 -21 70 -35 76 -62 11 -48 10
-371 -1 -399 -6 -18 -19 -27 -45 -32 -71 -13 -32 -24 85 -24 117 0 156 11 85
24 -19 4 -39 15 -45 26 -12 22 -14 380 -2 380 5 0 71 -57 147 -127 290 -266
344 -312 380 -319 18 -3 38 -3 44 1 7 4 11 88 11 249 0 223 2 244 18 259 10
10 31 17 45 17 15 0 27 4 27 9 0 9 -214 23 -236 14 -25 -9 -15 -19 29 -29 l42
-9 3 -193 2 -194 -136 124 c-75 67 -173 156 -218 196 -118 106 -136 113 -261
103z"/>
</g>
</svg>
