<?xml version="1.0" encoding="utf-8"?>
<!-- Generator: Adobe Illustrator 26.5.0, SVG Export Plug-In . SVG Version: 6.00 Build 0)  -->
<svg version="1.1" id="Calque_1" xmlns="http://www.w3.org/2000/svg" xmlns:xlink="http://www.w3.org/1999/xlink" x="0px" y="0px"
	 viewBox="0 0 1129 1298.3" style="enable-background:new 0 0 1129 1298.3;" xml:space="preserve">
<g transform="translate(0.000000,1345.000000) scale(0.100000,-0.100000)">
	<path d="M4564.8,11888c-233-109-578-309-835-482c-1151-777-1853-1832-2074-3119c-112-647-92-1381,53-2015c71-311,217-705,401-1082
		c453-931,1099-1642,1960-2156c172-103,521-273,725-354c635-253,1309-391,1998-410c194-5,227-4,227,8c0,8-169,705-376,1549
		c-264,1078-373,1539-366,1550c5,8,38,60,73,115c128,202,276,517,385,818c87,240,160,369,300,527c82,93,97,123,119,230
		c9,47,33,119,53,160c34,71,36,81,35,175c0,55-7,150-16,210c-9,61-26,194-37,297c-27,256-43,324-137,613c-64,198-119,276-214,304
		c-33,10-43,19-59,55c-10,24-31,58-48,77c-16,19-34,44-41,56c-19,37-13,131,13,197c37,92,61,218,50,257c-5,18-14,34-19,35
		c-11,4-51-54-106-153c-22-40-38-60-41-51c-3,8,0,90,8,183c59,764,31,1430-71,1653c-26,57-42,63-71,31c-16-17-19-39-21-128
		c-11-485-40-1057-69-1376c-18-197-23-209-107-243c-54-21-58-22-89-6c-18,9-67,53-108,97s-147,155-235,246c-172,178-252,276-362,441
		c-135,205-222,370-258,496c-29,102-38,114-76,114c-42,0-59-32-59-113c0-118,71-296,221-557c138-241,252-400,488-683
		c128-154,236-290,242-304c10-27,12-83,3-83c-3,0-15,11-25,24c-22,28-207,126-238,126c-30,0-28-47,5-116c29-61,81-107,179-155
		c104-52,147-93,171-164c35-100,47-192,42-311c-4-97-10-124-51-244c-26-74-58-184-71-245c-14-60-39-155-56-210
		c-46-148-49-219-14-336c27-87,29-103,24-214c-16-406,2-576,94-880c13-44,31-128,40-185c15-104,30-309,20-280
		c-3,8-337,1371-743,3029c-405,1658-742,3016-747,3017C4648.8,11925,4608.8,11909,4564.8,11888z M3959.8,11007l-545-540l-585-472
		c-321-260-607-490-635-511l-50-39l57,54c31,29,312,295,625,590c519,490,616,576,1118,997c303,253,552,460,555,460
		S4259.8,11304,3959.8,11007z M3901.8,11231l-303-297l-591-445c-325-245-587-439-583-431c124,209,381,508,564,654
		c66,53,1198,815,1210,815C4201.8,11527,4067.8,11394,3901.8,11231z M3974.8,10636l-690-690l-659-557c-363-306-669-563-680-571
		c-26-17,67,76,459,460c1146,1122,1891,1805,2188,2006c34,23,64,43,67,43S4353.8,11016,3974.8,10636z M4101.8,10290
		c-1091-1105-1267-1275-1822-1763c-278-244-496-433-485-420s384,405,830,870l809,845l616,522c338,287,617,522,619,522
		C4670.8,10867,4415.8,10607,4101.8,10290z M4683.8,10365c-55-57-319-328-586-604l-486-500l-928-750c-1093-882-974-786-974-781
		c0,2,249,247,553,545l552,540l980,826c539,454,982,825,985,826C4781.8,10467,4738.8,10421,4683.8,10365z M4902.8,10043
		c-15-18-257-291-538-605l-510-573l-860-741c-473-408-959-827-1080-931l-220-190l120,125c66,68,455,468,865,888l745,764l750,648
		c413,356,751,648,753,649C4929.8,10077,4918.8,10062,4902.8,10043z M4821.8,9330c-88-98-325-364-528-590l-369-413l-1044-980
		c-573-539-1045-980-1047-980c-4,0,692,767,1066,1174c108,119,443,440,1114,1068c528,494,961,898,963,898S4908.8,9427,4821.8,9330z
		 M5117.8,9170c-14-16-381-451-815-968l-790-940l-714-712c-700-697-829-822-723-698c28,33,459,542,958,1130l908,1070l596,572
		c329,315,599,573,601,573C5141.8,9197,5131.8,9185,5117.8,9170z M5172.8,8684c-37-45-355-429-705-852l-637-770l-818-815
		c-449-448-808-804-796-790c11,14,404,468,873,1010l852,985l647,657c355,362,647,658,649,658S5210.8,8730,5172.8,8684z M4751.8,7679
		l-567-729l-665-676c-366-372-666-681-668-687s17-10,47-10c28,0,51-4,51-10c0-5-12-10-27-10c-14,0-35-7-45-17c-16-15-18-35-18-230
		c0-117,4-213,8-213c5,0,238,282,518,627c506,624,513,632,1262,1450c415,453,755,823,758,823s-345-469-610-822
		c-52-69-458-523-981-1095l-892-978l36-8c57-13,226-3,254,16c13,8,31,36,41,61s22,46,28,46c15,0-1-132-18-150c-12-12-52-16-204-18
		l-188-3l-132-145c-72-79-133-144-136-144c-2,0,42,56,98,125c151,184,146,165,44,165c-86,0-114,12-54,24c58,12,58,11,57,225v196
		l-176-180c-98-99-170-171-162-160c9,11,84,100,167,197c84,97,152,181,152,186c0,12-24,22-51,22c-10,0-19,5-19,10c0,6,24,10,53,10
		c28,0,57,4,63,8c5,4,269,309,585,677c501,585,662,764,1264,1408c379,405,691,737,692,737C5318.8,8407,5064.8,8079,4751.8,7679z
		 M5457.8,7605c-24-35-294-423-600-863c-502-721-573-818-713-977c-85-97-155-179-155-182s24-6,53-8c51-3,50-7-7-24
		c-40-12-50-53-43-184c6-105,14-150,26-150c3,1,119,159,256,353c224,316,304,417,774,982c288,346,532,639,543,650s-152-239-362-555
		c-341-511-405-602-583-820l-200-245l67-3c36-2,66-7,66-12c0-6-11-10-24-10s-33-8-44-17c-19-16-21-32-24-169c-3-139-2-149,13-130
		c831,1080,1174,1524,1187,1536c20,19,77,109-567-901l-550-864l-562-675c-308-371-565-679-571-685c-13-13,21,40,467,725
		c202,311,391,597,421,637l54,72l-50-25c-65-33-157-41-230-19c-30,9-60,17-66,18c-7,1-188-214-404-478s-401-489-412-500
		s150,218,358,509c316,443,375,532,365,545c-37,51-52,105-59,211l-7,111l-480-547c-482-549-556-632-537-604c5,8,281,384,613,836
		l604,820l710,852c390,469,711,852,713,852S5481.8,7639,5457.8,7605z M6464.8,6797h78l-7-70c-13-127-43-215-126-363
		c-50-90-61-138-70-318c-5-91-16-201-25-245c-21-100-73-264-84-264c-5,0-12,15-15,33c-5,25,0,49,19,89c51,112,58,178,61,618
		c1,223,7,443,13,490c6,46,11,88,11,93s15-8,34-27C6386.8,6798,6388.8,6797,6464.8,6797z M5847.8,6315c-44-69-458-768-458-774
		s58-61,152-143l36-32l71,96c39,52,71,99,71,104s4,11,9,13s57,68,116,148s112,150,117,155c12,11-130-265-143-279c-19-21-6-26,71-26
		c47,0,80-4,80-10c0-5-13-10-28-10c-59,0-63-15-60-250l3-213l94,142c52,77,96,140,97,138c2-2-125-273-283-603l-287-599l-429-605
		c-237-333-437-612-445-620s-4,5,10,30s207,374,428,775c352,638,426,764,584,1001l182,271l-38,19c-21,11-72,50-113,88
		c-42,38-77,67-79,65c-1-2-90-169-196-371l-193-366l-488-632c-268-348-491-635-495-639c-19-16,1008,1719,1063,1797l44,62h-100
		c-101,0-132,12-66,24c46,9,57,36,53,130l-3,71l-65-110c-49-84-220-302-714-915c-356-443-651-807-654-810c-10-8,5,14,565,865
		c435,662,570,859,697,1019c86,109,155,203,153,210c-2,6-18,16-35,21c-53,18-48,25,20,25h64l300,380c164,209,301,380,303,380
		S5855.8,6327,5847.8,6315z M6239.8,4927c0-14-125-317-277-675c-260-612-289-675-496-1070c-206-392-252-477-229-415
		c5,14,188,453,407,975c394,944,397,951,488,1091C6221.8,4970,6238.8,4986,6239.8,4927z M6370.8,4397c1-14-57-178-129-365
		c-128-333-137-352-416-895c-157-305-286-552-286-548s95,269,211,590l211,583l197,337c108,185,199,333,203,329
		C6366.8,4424,6370.8,4410,6370.8,4397z M6472.8,3988c4-21-28-149-109-433l-115-403l-147-337c-81-185-148-335-150-333
		c-1,1,74,277,168,613l170,611l82,159c46,88,86,158,89,156C6464.8,4019,6469.8,4004,6472.8,3988z M6595.8,3471
		c12-105-39-343-149-697c-56-181-103-324-105-319c-1,5,33,214,77,463c73,416,83,461,118,536c20,46,41,79,45,75
		C6586.8,3524,6592.8,3498,6595.8,3471z M6748.8,2862l48-186l-56-179l-55-180h-52c-28,0-53,2-55,4c-2,3,6,125,18,273
		c22,255,25,273,60,372c20,58,39,99,41,93C6699.8,3052,6722.8,2964,6748.8,2862z"/>
	<path d="M4247.8,5338c-126-154-165-208-157-217c6-7,30-21,55-30c119-45,247,36,274,175c11,61,12,176,2,236l-7,40L4247.8,5338z"/>
	<path d="M5724.8,5421l-68-127l74-67l74-68l3,186c1,102-2,190-7,195S5764.8,5497,5724.8,5421z"/>
	<path d="M5310.8,5413c-19-29-21-49-21-168c0-141,5-160,46-172c19-6,33,9,102,102l80,110l-81,74c-45,41-87,77-94,81
		S5322.8,5434,5310.8,5413z"/>
	<path d="M8144.8,5577c-99-5-122-14-55-22c43-5,50-37,50-238c0-102-3-195-6-206c-6-23-42-44-75-44c-11,0-17-4-14-10
		c4-6,65-10,151-10c89,0,144,4,144,10s-10,10-23,10c-12,0-33,7-45,16c-20,14-22,23-22,120v104h88l87-1l60-81
		c117-157,229-236,349-245c71-6,102,11,41,23c-78,14-166,91-288,251l-48,62l51,22c59,25,90,63,90,111c0,43-22,73-70,98
		C8536.8,5584,8422.8,5592,8144.8,5577z M8493.8,5523c36-15,66-50,66-78c0-10-13-32-29-50l-29-33l-126-3l-126-4v91v91h105
		C8422.8,5537,8472.8,5532,8493.8,5523z"/>
	<path d="M6934.8,5567c3-5,16-10,28-10c30,0,51-15,45-31c-11-29-271-424-286-436c-10-7-34-16-54-19c-78-13-33-24,102-24
		c77,0,140,4,140,8c0,5-18,14-41,21c-37,11-40,15-34,39c3,14,21,50,38,79l32,53h146h146l35-57c54-88,56-102,19-116
		c-17-6-31-15-31-19s65-8,145-8c138,0,183,10,114,25c-47,11-85,57-217,268c-68,108-135,206-149,217c-21,16-41,20-105,20
		C6957.8,5577,6930.8,5573,6934.8,5567z M7108.8,5385l51-83l-55-3c-30-2-79-2-109,0l-55,3l52,82c29,46,55,83,59,83
		C7054.8,5467,7080.8,5430,7108.8,5385z"/>
	<path d="M9364.8,5567c3-5,16-10,29-10c12,0,31-6,42-14c17-13,19-30,23-181c4-217-2-269-35-284c-14-6-34-11-44-11c-11,0-20-4-20-10
		s57-10,151-10c143,0,183,9,104,24c-26,5-39,14-46,34c-6,15-9,107-7,225c3,183,5,200,22,213c11,8,30,14,42,14c13,0,26,5,29,10
		c4,6-47,10-145,10S9360.8,5573,9364.8,5567z"/>
</g>
</svg>
